# xmcd
#
# Track frame offsets:
# 150
# 10960
# 23989
# 47245
# 71384
# 87828
# 103730
# 119310
# 130138
# 155820
# 173103
# 195154
# 215495
#
# Disc length: 3015 seconds
#
# Revision: 0
# Processed by: cddbd v1.5.2PL0 Copyright (c) Steve Scherf et al.
# Submitted via: cdrdao 1.2.1
#
DISCID=ad0bc50d
DTITLE=AGF - westernization completed
DYEAR=2004
DGENRE=Electronic
TTITLE0=LETSmakeOURmovies
TTITLE1=ambientTRUST
TTITLE2=PRIVATEbirds
TTITLE3=REfail
TTITLE4=Chorizon
TTITLE5=leavingWITHhope
TTITLE6=MYpatch
TTITLE7=inBETWEENmovies
TTITLE8=POEMproducer
TTITLE9=youSTOP
TTITLE10=contemporaryWESTERNIZED
TTITLE11=pipeDREAMvoices
TTITLE12=letsGO!
EXTD=Orthlorng Musork 2004
EXTT0=
EXTT1=
EXTT2=
EXTT3=
EXTT4=
EXTT5=
EXTT6=
EXTT7=
EXTT8=
EXTT9=
EXTT10=
EXTT11=
EXTT12=
PLAYORDER=
